PathFileType	3	(X/Y/Z)	results
DataRate	CameraRate	NumFrames	NumMarkers	Units	OrigDataRate	OrigDataStartFrame	OrigNumFrames
30.0	30.0	4	85	mm	30.0	88	233
Frame#	Time	head			nose			neck			shoulder_r			elbow_r			wrist_r			shoulder_l			elbow_l			wrist_l			hip_r			knee_r			ankle_r			hip_l			knee_l			ankle_l			heel_r			heel_l			mtoe_r			ltoe_r			mtoe_l			ltoe_l			asis_l			asis_r			psi_r			psi_l			mhnd_r			lhnd_r			mhnd_l			lhnd_l			l_lat_knee			r_med_wrist			l_lat_ankle			r_med_ankle			r_lat_knee			xiphoid			l_med_ankle			r_med_knee			l_med_elbow			navel			r_lat_elbow			r_lat_wrist			l_med_wrist			l_lat_elbow			l_med_knee			r_med_elbow			r_lat_ankle			l_lat_wrist			chin			T10			r_eye			l_eye			l_ear			r_ear			spinal_cord_8			spinal_cord_12			spinal_cord_27			spinal_cord_33			up_arm_r_0			up_arm_r_5			up_arm_l_0			up_arm_l_5			front_torso_11			front_torso_7			front_torso_4			front_torso_1			front_torso_10			thigh_r_2			thigh_r_3			thigh_l_1			thigh_l_5			shank_l_0			shank_l_4			shank_r_1			shank_r_2			foot_r_1			foot_r_3			foot_r_5			foot_r_6			foot_r_7			foot_l_1			foot_l_7			foot_l_0			foot_l_4			foot_l_5			foot_l_6			
		X1	Y1	Z1	X2	Y2	Z2	X3	Y3	Z3	X4	Y4	Z4	X5	Y5	Z5	X6	Y6	Z6	X7	Y7	Z7	X8	Y8	Z8	X9	Y9	Z9	X10	Y10	Z10	X11	Y11	Z11	X12	Y12	Z12	X13	Y13	Z13	X14	Y14	Z14	X15	Y15	Z15	X16	Y16	Z16	X17	Y17	Z17	X18	Y18	Z18	X19	Y19	Z19	X20	Y20	Z20	X21	Y21	Z21	X22	Y22	Z22	X23	Y23	Z23	X24	Y24	Z24	X25	Y25	Z25	X26	Y26	Z26	X27	Y27	Z27	X28	Y28	Z28	X29	Y29	Z29	X30	Y30	Z30	X31	Y31	Z31	X32	Y32	Z32	X33	Y33	Z33	X34	Y34	Z34	X35	Y35	Z35	X36	Y36	Z36	X37	Y37	Z37	X38	Y38	Z38	X39	Y39	Z39	X40	Y40	Z40	X41	Y41	Z41	X42	Y42	Z42	X43	Y43	Z43	X44	Y44	Z44	X45	Y45	Z45	X46	Y46	Z46	X47	Y47	Z47	X48	Y48	Z48	X49	Y49	Z49	X50	Y50	Z50	X51	Y51	Z51	X52	Y52	Z52	X53	Y53	Z53	X54	Y54	Z54	X55	Y55	Z55	X56	Y56	Z56	X57	Y57	Z57	X58	Y58	Z58	X59	Y59	Z59	X60	Y60	Z60	X61	Y61	Z61	X62	Y62	Z62	X63	Y63	Z63	X64	Y64	Z64	X65	Y65	Z65	X66	Y66	Z66	X67	Y67	Z67	X68	Y68	Z68	X69	Y69	Z69	X70	Y70	Z70	X71	Y71	Z71	X72	Y72	Z72	X73	Y73	Z73	X74	Y74	Z74	X75	Y75	Z75	X76	Y76	Z76	X77	Y77	Z77	X78	Y78	Z78	X79	Y79	Z79	X80	Y80	Z80	X81	Y81	Z81	X82	Y82	Z82	X83	Y83	Z83	X84	Y84	Z84	X85	Y85	Z85	
88	2.933333333333333	-3080.5499516070768	1866.3952093127666	-627.172776471155	-3185.882122510771	1637.969617072694	-582.2363936366266	-3012.921666072773	1481.1593235542668	-696.0692880807868	-3092.143370446883	1455.7441452361807	-901.950516330439	-3101.5685849614547	1171.3515145451363	-1006.3397650783922	-3174.9065573791127	918.6117927646387	-1074.104467444413	-2968.6184069852206	1417.0671561184326	-518.2005643056209	-2941.28483689901	1126.3085146046155	-429.31345633734287	-3023.134524726851	869.8126320101782	-377.5637662926083	-3095.043247721018	921.3078791758583	-859.5211206433424	-3127.3837596644935	532.2735136034686	-851.5539212606416	-3111.7327677420185	114.31051936677238	-893.0003566703601	-3031.7744959197407	880.3957766788749	-637.9166023168107	-3134.8724827205106	497.8369337737129	-559.8324999039339	-2794.3029885845176	261.0110624251691	-619.9881887747579	-3097.8103406556193	53.80121900520217	-893.6840681581878	-2728.5116220388363	238.80522019770817	-629.2559082145958	-3328.944949763851	65.66684380985404	-868.5336369830296	-3274.3482385882344	59.00412171231232	-942.5621192908584	-2874.4241654363464	56.09982151525239	-588.4718050328872	-2811.197152912587	101.05567982731992	-521.2312105121492	-3062.545012415526	949.1982712453296	-561.5020370437774	-3151.4043711775244	1005.2629001582092	-887.7655203620892	-2948.956241819885	995.9110478411386	-825.5549471442467	-2924.643382874285	975.6059884836526	-712.9319945605691	-3179.641159758255	860.1972019874024	-1118.2293685672742	-3209.8330392586013	839.1987401783772	-1079.2863683151375	-3020.5333563398676	800.4584132545951	-345.9751122444303	-3065.22202357289	792.2566491248283	-374.106969804913	-3121.495212198537	510.24540081626867	-514.1146194137183	-3165.9385760087503	934.9865875150596	-1102.7466160064957	-2767.471617344805	257.47728766679137	-567.1003070060875	-3119.1562643361412	99.94963764407322	-854.8129130337956	-3137.6432555695424	523.1543454804591	-893.2138764915187	-3125.364776405913	1290.1569821563269	-676.3233453797998	-2798.8370233117776	240.66184525806116	-651.6221707746439	-3126.333699169425	528.0408218064674	-809.3379445333442	-2906.7077124533357	1133.2389686406493	-452.08220244107304	-3152.9826332783305	1040.5433303262819	-689.0580951634834	-3145.8924064955054	1183.2433240298124	-1012.780296406764	-3173.0491346493486	917.2637091766408	-1036.4714744859182	-3001.987224748682	881.5107158640138	-348.05329680859575	-2972.0908880215466	1145.6333696416866	-400.40270980566135	-3153.2917271680817	505.3189875544789	-605.2912246205508	-3060.083993182821	1173.7865152555528	-996.4446226420474	-3123.221849217223	99.13639752660869	-944.3901960047667	-3047.8529939589002	882.2777369696466	-401.6793034432134	-3157.70730980955	1551.8551336033827	-606.9738949463564	-2915.235058132027	1299.072075277545	-754.3355535194695	-3208.9651661010007	1678.3878500620347	-611.193282497823	-3166.870407885931	1671.7257732628652	-540.0281110840778	-3029.4975016909525	1679.211103396398	-547.1942876352726	-3130.916043320285	1692.5146592802419	-725.7598275192273	-2957.0075302241985	1547.6109706225245	-709.7612078305414	-2908.3145961310966	1412.8623367538785	-741.4697363920501	-2946.549486887562	1128.1237209735996	-777.2273093422037	-2929.7004141344637	1288.340225181861	-749.9014042251645	-3124.3301314105606	1300.254817208844	-910.0936620441312	-3093.7873325056003	1301.8034208126635	-1007.8006523372101	-2983.438070733626	1364.6356678490963	-473.71121498694055	-2901.6498939899784	1208.375731794568	-465.2109380047982	-3130.386199026274	1077.413071184327	-759.1198539884047	-3163.7731040739322	1191.8183097289977	-673.9087377657356	-3100.2981706197734	1333.8871706473192	-593.3209255464214	-3080.871253788255	1101.3075454072648	-615.432186435034	-3170.287266450269	1398.7975547326291	-756.1728139095746	-3111.974297383004	710.4886764933575	-837.2247590379379	-3128.695190475663	673.8346645009033	-931.6152388085907	-3107.4059143104464	607.247792223019	-631.3635636332181	-3059.1035763882537	798.6828345489838	-517.3860413339362	-2867.789202093412	312.4935905162265	-532.6291502781681	-3016.5036477924077	400.08488428753424	-633.4910077011762	-3129.7615229249723	358.94753866748874	-931.7148121993437	-3117.3328251015505	309.8904593025844	-829.6492588802068	-3313.3498942442084	57.75040215421492	-894.5462645425346	-3298.369634818309	59.29641481550299	-920.9867076294391	-3242.1661206608933	68.73964491236009	-863.8515987783969	-3231.421227495867	76.270936506269	-902.8348490703023	-3223.3524156394374	62.88274495148979	-936.5049971700001	-2837.3503370453395	74.06932457479556	-545.2100943143173	-2790.511791971798	180.44537110923875	-547.5487265930072	-2829.1297369797935	82.08045321397809	-531.8132597302316	-2847.011438647143	64.72368614098988	-561.8157913310724	-2820.8537339187	122.7632552440294	-566.5001283227464	-2817.979945456162	151.00263383775854	-603.2545916452025	
89	2.966666666666667	-3110.8176001493935	1871.1575743939993	-618.3341886957005	-3208.337241365027	1640.9072390311374	-565.7309705220168	-3049.007874897159	1488.3387062400593	-696.9153661264836	-3149.9296165652313	1468.8771730855096	-898.8989342326437	-3184.9319523804475	1184.463669351971	-997.6355216542861	-3281.883364080796	934.96901043546	-1044.5473431091739	-2991.488112164256	1420.9595117772715	-516.5910459154129	-2948.0613125662107	1127.3109448837833	-445.36421199971556	-2999.1952083380284	863.9805252048296	-388.7077527029711	-3120.1136033715425	924.0971408041204	-861.3123307167685	-3136.919661029715	534.202892473503	-852.387626730439	-3119.488637497218	116.0739806872198	-891.3773388948312	-3050.5214247267654	888.526710635305	-640.6837496194221	-3194.233911424835	519.3755816998416	-557.6460115276798	-2873.438751023175	261.445995698049	-636.738200189924	-3105.309840452868	55.81486494562384	-892.4721875134887	-2809.4034337536114	233.24658081024884	-648.1191237654566	-3332.80294614846	63.949685623938045	-843.7150719156396	-3286.077362088158	50.70647321205796	-922.1162584435283	-2976.9967181826887	68.16347586685056	-616.5733542027533	-2908.5966719370417	100.96958158298183	-547.3983951345182	-3082.4218995084943	956.9760804891513	-564.4155570017734	-3180.4263582653034	1005.3530346773376	-889.287662866512	-2976.4840071303647	1004.9484642019495	-831.4066523488613	-2948.9690056589775	987.0414018070899	-719.1141690532233	-3293.641366064098	874.4687029452829	-1084.3361600985932	-3323.320005656504	858.5974650127088	-1042.6669338857378	-2987.6936762176765	795.6358911452647	-356.90614024544186	-3032.4061289101965	782.3561354603759	-382.9866307867698	-3177.4633580908644	530.9111227548135	-512.680329703305	-3273.156173037071	948.6780796635766	-1074.6277158564492	-2846.8856075584968	252.09078943245245	-584.4223443477852	-3126.5106758308907	101.91424471677534	-853.0391473370669	-3147.8273166345753	524.5319632017533	-893.8056808708499	-3153.8170582500074	1294.0235288894075	-669.1323376715054	-2879.608613837114	243.80216157172237	-669.6924842448246	-3135.2704665273395	530.0051922268441	-810.143712461496	-2914.5158428168156	1137.1740324111481	-468.59017787701026	-3175.2071441156413	1043.7722302246366	-681.3244167996049	-3228.4608625925853	1199.5837029158859	-1002.5462540603212	-3278.148319878707	935.8671001604508	-1007.0406452109893	-2978.1823704477547	878.1966313564889	-360.22470088146275	-2978.890062523831	1143.4665500664735	-414.59281830006574	-3213.161340688284	529.9098355566654	-602.5308317124658	-3143.014798208074	1183.8954127730199	-989.4231104441052	-3131.3405506843683	100.52164003007013	-942.5713366628154	-3026.148379955972	873.4504268771753	-411.76828602157246	-3181.988498056093	1555.4638818997876	-594.4824009759709	-2951.4061732657588	1309.48534570248	-764.5820514834465	-3234.7805200858497	1681.4005055002986	-591.5381449709782	-3185.354460361038	1674.359899198173	-525.2936882837298	-3049.59010163378	1683.621883872883	-546.7635310704651	-3169.3905994260354	1697.9274107897827	-713.4715088273233	-2996.3958279277203	1556.4693472442127	-714.8002458369978	-2946.7030798233122	1423.365234754305	-751.5092769833469	-2979.6075525969795	1137.8058159048721	-786.0013657686721	-2965.12784649353	1298.3118923627544	-759.018739968452	-3194.018306022621	1316.1711795100737	-902.9358293153427	-3167.4311603905276	1313.912258580568	-1001.7788242799559	-3002.555936102884	1365.449802864897	-474.82789124194625	-2913.3514669528677	1213.0877445094468	-477.4913545780233	-3159.7071451776837	1081.632586122571	-752.7734907312763	-3189.030844437821	1194.589157619176	-664.2008539834014	-3123.071911921206	1338.0629947650107	-588.2291409985434	-3098.892812718551	1106.265092320385	-613.6200570215495	-3208.4639813329254	1401.6890310312788	-744.0896267906303	-3128.4751987892732	712.8212816629576	-838.4842894207065	-3145.388840417882	675.3757284492166	-932.5291021626593	-3156.8698897272247	625.9222269504714	-630.5959194888493	-3082.3620940285373	810.2233996653241	-519.0027611652781	-2942.5116907606553	312.22129498048423	-545.4525284754017	-3084.03477618556	418.1044834056213	-638.8404403679615	-3139.0991822647625	360.37039817365013	-931.449813611368	-3125.544534636119	312.0145015862522	-829.1931486323349	-3319.7311928522777	53.65721930551484	-870.2805946950854	-3307.688371409559	52.7020416701674	-898.2082413132965	-3246.2020789670023	69.92773640619006	-848.8610879581618	-3239.9233145276476	73.42242825540762	-889.3608550132421	-3234.920058929195	56.64248387308764	-922.0935477054162	-2937.9366184778332	78.86978682829448	-572.6571735546869	-2878.1608825160865	178.5248617323584	-569.3542630296919	-2928.769284820614	85.01559259116031	-558.8941546443285	-2948.70227389955	71.76474565928403	-589.6879124886143	-2915.4930080285535	126.25628036524967	-591.2933460987251	-2909.1344921050354	155.9635233743717	-626.4168528378946	
90	3.0	-3138.487935532726	1873.5713389297248	-609.642300843755	-3230.2744230880166	1642.4627306001964	-550.850738710951	-3084.4431012785167	1495.0401573429933	-695.7329780575161	-3206.4565262815354	1482.3372876899925	-891.4726121567694	-3258.2615178741785	1200.8555766779875	-991.2193290251496	-3374.3671525135796	956.2199273664455	-1014.0395117955387	-3019.0940434500358	1422.9109700090164	-519.9277779744474	-2958.0784232759556	1131.182873347374	-453.8941399970471	-2975.662340633034	863.1742294490119	-398.8513180192348	-3146.0295330652643	926.5449144470704	-860.8299121480063	-3148.062089524833	536.3186236897951	-851.2012376459651	-3117.517829185708	118.95045263456616	-890.2740294323585	-3064.482285535704	896.2760316457595	-643.5302600952188	-3241.0130554745488	543.1185539407022	-555.9197366373152	-2961.3801512306804	246.4930782851475	-653.4468950898323	-3102.497189748658	57.98302502605277	-892.0460228590131	-2902.1674620318686	209.4126331935171	-667.0758788717139	-3324.4050235000327	74.88523763411898	-823.7249185306987	-3285.278421811997	55.42315003871524	-904.9391113575557	-3094.9745508053584	72.38496828732391	-647.4819596662716	-3021.9084432189243	86.93205992925812	-576.8440951198016	-3096.217144931098	963.6285674812191	-566.2235440510173	-3211.6327816436697	1004.4298384803185	-886.3822170380545	-3005.450312690542	1014.7756774058911	-838.1679996786584	-2971.8417392863175	999.1677103232485	-727.1986563825709	-3391.3219428805746	893.4428502622574	-1047.9992150970822	-3421.3366055307765	883.6929750938324	-1004.7198641899681	-2959.712891210639	797.8223902167707	-362.94353372618826	-2995.5168162814625	777.1518646396304	-396.80436132379856	-3220.6300978116183	551.7899920711369	-511.8667954925286	-3365.1922553973773	966.4573414359953	-1045.3436310661027	-2936.2459856610867	230.39604912571482	-602.0786416838258	-3122.7382563412602	104.64664317449524	-851.7023785437115	-3159.8612715020927	526.1740930368093	-892.263767058923	-3180.866287445343	1297.5025518545053	-661.1394335535412	-2970.1836966919946	231.85617420328282	-687.264280464815	-3145.011481352231	532.2466838322774	-809.0197699645963	-2921.839944338827	1145.9232601568726	-469.1098610855452	-3195.8970472804453	1046.8136770418146	-673.8303497590728	-3300.683369988781	1218.7131581996985	-996.6035631727417	-3369.893148955867	960.2128117225	-976.8165393960093	-2963.386455474365	880.7984110923691	-367.3297042223808	-2996.167691258056	1142.04992052	-429.6163925042718	-3261.4452785926514	556.0219117007715	-599.4149143925764	-3216.5640933123227	1197.6180589989763	-982.521186032435	-3130.558808754411	102.87828047106062	-941.0163853829392	-2998.640987838619	867.919433778388	-427.0896873659637	-3205.7645109477744	1557.3294384842427	-582.0445695972235	-2987.649292412817	1319.6404068893316	-772.9293714330626	-3258.8861738961477	1682.9225620641519	-574.2885633858318	-3204.392836455483	1675.851250347852	-512.1491533146078	-3070.7778900542357	1686.0563072989019	-544.1116707505504	-3203.3250142689644	1700.467396036546	-700.8660569833589	-3035.511830278287	1564.8289563857313	-717.2953271569361	-2985.1934685594492	1433.5182343531887	-759.2379510236215	-3012.522999398339	1147.3463614893642	-793.5212725758123	-3000.528277654014	1308.0252886172295	-766.3489780253898	-3260.0893075026956	1332.741263735042	-896.3494891485562	-3232.5400066046236	1328.9390516818219	-994.8811890919362	-3032.078866242497	1363.9366098386233	-483.85278915817673	-2927.506237212497	1221.9795866966829	-474.28738179512726	-3187.514132126967	1085.6048160378475	-745.9663390460325	-3212.6344255147724	1197.0314533515675	-654.2207466717674	-3144.7831868966855	1341.8870333616803	-582.6659127619611	-3116.060110426841	1111.091102329806	-612.1246657855536	-3244.6827440338852	1403.999172178363	-730.296294919992	-3145.857499441846	715.1421475740824	-837.648778309074	-3164.1843662124834	676.9406604572298	-931.123052142709	-3197.1047877960473	646.0843432965155	-629.8092487901066	-3097.19328848765	819.7076865003818	-520.9791340734644	-3021.9688813606494	301.37860199318095	-558.584568794813	-3147.019402942317	431.82292834756885	-644.0712938520595	-3146.9161225631337	362.3296652431512	-929.9403313675216	-3128.2279870837615	314.7103367768818	-828.1483872438916	-3314.0046973787244	62.56778608764872	-850.6069980943814	-3304.5784082052473	59.50186395976727	-879.3757407184818	-3238.5374967219386	78.3759340694884	-837.0106873174472	-3235.9133244152927	79.07406174588402	-878.0532654890744	-3234.23010900441	60.083108723174554	-909.9050905562086	-3054.585313904667	72.41008522378235	-603.4631418971703	-2978.9595363442995	159.9996158437535	-592.3277175225911	-3044.490746614809	75.6698968139286	-589.3668670696916	-3066.4228018859108	68.77085113322414	-620.8716705206957	-3024.5609393941127	116.88684613104337	-618.1892079457245	-3013.3879700676034	148.17894654484837	-650.6327118522137	
91	3.033333333333333	-3164.9443613273334	1873.9227617953466	-595.4187266810923	-3251.1680524747344	1640.6945201173812	-536.576069632939	-3118.275393665353	1499.6302046203996	-693.6531670305606	-3265.412265028819	1493.130722188945	-873.0859245537544	-3319.876289589113	1216.8953936944029	-985.3037111759685	-3442.3579439019154	974.4430968189423	-993.2414783295507	-3054.8775859946268	1423.4468071637164	-522.1469918254759	-2968.3751392114605	1137.5681117763902	-459.0650779693739	-2950.860330216562	868.6468416204142	-408.645622114422	-3178.3328066253766	927.715137432373	-855.8649626637373	-3160.2034490897613	537.8635254149733	-849.1537711139282	-3111.712437143443	122.39204910318685	-890.2378220261835	-3076.0638776868373	902.0291766488549	-646.8994267006481	-3272.5567750443283	562.4343483507987	-556.8309693141929	-3056.8297756898237	221.6487523100681	-670.9353945580564	-3096.1461166870345	60.0371273370564	-892.6058487703359	-3005.7935190476505	175.98900019349017	-687.5894035056407	-3310.978340632908	96.31699362832495	-810.5849269011321	-3279.1227830049306	70.09161922548913	-893.0643917113805	-3215.4962251612556	67.5784846328899	-662.9518048950303	-3138.606820400613	69.86757008832859	-594.9609129749474	-3103.783848205648	968.0741663654428	-566.9653520039133	-3249.576028621864	1002.3495132342834	-875.2783902105987	-3040.5842231890283	1022.5222003400467	-845.9808544931207	-2996.3444340602623	1008.8775933253982	-738.5378195790641	-3461.6260035343525	910.5137244730574	-1023.6300453231569	-3490.827170806194	903.6749978523031	-979.2502537180246	-2935.751679954731	805.770267269633	-368.2366888703169	-2952.9073863985227	780.4284353789118	-412.0455991117771	-3252.0439053303694	568.2764269327594	-512.6304035453657	-3433.687438104442	982.8866855198813	-1025.2173974921852	-3033.0085951521037	200.0651428033119	-620.973036296338	-3115.28531549834	107.79529679092425	-851.5881979759076	-3170.7550040162887	527.4407513086314	-890.494308316696	-3207.3233377629967	1299.769228189575	-653.1401631165481	-3069.5731728312307	209.63613453416679	-704.5309265654187	-3157.76271533912	533.5829714077042	-806.9453451520459	-2932.378967074496	1159.1543249276351	-459.6443192734414	-3217.837284808329	1048.8915179760145	-666.6207597553515	-3362.033555806357	1235.4998668045018	-990.2164718436503	-3436.90321041755	980.1553664309341	-956.3751608288043	-2953.9024678347214	886.6434634752065	-375.1525142873976	-3013.6586023256773	1139.717458143113	-448.9121300444319	-3293.5435924364715	574.9379925197109	-599.7042846056664	-3278.2904627909447	1212.762029200901	-976.4522291073043	-3125.3061272918535	105.83444891187781	-940.6781433736323	-2963.166033583541	870.3745805733416	-443.19305729625574	-3228.578001253543	1556.6068017369075	-571.7955742912129	-3024.0922930709253	1326.9312347066777	-779.6648313400473	-3281.5857280321216	1681.5865715313712	-556.7643587315687	-3222.7154229927814	1673.188081454515	-498.9319620337412	-3091.8061540101507	1685.146884053937	-540.1442168233882	-3235.3916442221803	1702.939964764534	-686.4827643726276	-3072.7394447941992	1570.6314987499318	-718.4518412803294	-3023.045983915259	1440.747044525431	-765.2942946775904	-3046.752253017297	1154.2564941330822	-799.6129128325325	-3036.153343351007	1314.989455736562	-772.1811295897182	-3320.8298567667325	1344.5700006795946	-884.8261155416058	-3292.563553239466	1344.684624655173	-983.2279429456286	-3068.3963726051743	1359.1668695933097	-496.9811889756558	-2949.449020035528	1233.6490199310986	-461.26669734501104	-3216.0401047843943	1088.3140176538047	-738.8790696207543	-3236.2438612790384	1198.570429480895	-644.541854071652	-3166.1180951390993	1344.4555890326637	-577.4082481519915	-3134.787593882303	1114.550702748435	-610.9006052816582	-3278.723344982468	1405.2435153614572	-716.1794799007778	-3167.5934963340133	716.420232924926	-834.2396315255636	-3182.2005261989784	678.0981962549397	-928.3179165667003	-3224.0189383446295	660.7178837002206	-631.0553395611937	-3112.083999757756	827.8646688968481	-523.7991574989825	-3102.2677857480653	284.6293116502589	-572.6953199005426	-3204.4682320178686	437.7244894990261	-650.6585848951402	-3153.162379220043	364.25058106779403	-928.4146358071066	-3129.721477930569	317.34763540525034	-827.2756988211185	-3303.376906245199	81.96824064617529	-837.3965676715882	-3296.240996588438	76.81297593822953	-866.5238297710292	-3226.228487605501	92.91926252209468	-829.7642544182326	-3226.46974650139	91.40118696247504	-870.8678324408586	-3228.35368237891	70.79103130206762	-901.6850441933951	-3173.9694841659784	60.79730520164807	-620.5431643379166	-3086.1663527421824	136.36779672954503	-610.8018757041276	-3163.0108571496858	62.24985388198129	-606.794338183165	-3186.8253591339003	59.29578839333845	-637.5401917660172	-3138.400957636688	100.84334317538455	-635.6328001837309	-3124.0104035309264	130.95542269398933	-667.9250029144756	
